<svg xmlns="http://www.w3.org/2000/svg" version="1.0" width="20" height="20" viewBox="0 0 800.000000 729.000000" preserveAspectRatio="xMidYMid meet">
  <g transform="translate(0.000000,729.000000) scale(0.100000,-0.100000)" fill="#ef5366" stroke="none">
    <path d="M5645 7281 c-81 -36 -95 -151 -24 -202 37 -26 100 -27 136 -4 86 57 50 200 -54 211 -21 2 -47 0 -58 -5z" fill="#ef5366"/>
    <path d="M2383 7261 c-41 -26 -53 -49 -53 -105 0 -112 144 -151 208 -56 67 99 -54 224 -155 161z" fill="#ef5366"/>
    <path d="M5153 7167 c-32 -30 -36 -39 -36 -82 0 -43 4 -52 36 -82 91 -83 223 1 188 119 -15 47 -59 78 -114 78 -28 0 -46 -8 -74 -33z" fill="#ef5366"/>
    <path d="M1950 7183 c-28 -10 -69 -56 -75 -84 -9 -39 11 -94 42 -119 18 -14 41 -20 74 -20 39 0 53 5 77 30 37 36 46 72 32 116 -21 63 -90 99 -150 77z" fill="#ef5366"/>
    <path d="M2850 7133 c-8 -3 -27 -17 -42 -31 -75 -70 -23 -192 82 -192 109 0 156 124 76 199 -24 23 -87 36 -116 24z" fill="#ef5366"/>
    <path d="M6050 7088 c-39 -26 -61 -78 -53 -121 7 -36 54 -83 90 -90 75 -14 149 53 140 127 -12 86 -107 131 -177 84z" fill="#ef5366"/>
    <path d="M4783 6978 c-47 -12 -83 -61 -83 -112 0 -48 19 -80 60 -101 82 -42 170 15 170 109 0 68 -77 123 -147 104z" fill="#ef5366"/>
    <path d="M3241 6887 c-58 -29 -81 -110 -47 -162 9 -13 62 -59 118 -101 172 -131 508 -430 508 -453 0 -4 -52 -65 -116 -136 -132 -148 -345 -410 -483 -597 l-94 -127 -66 -6 c-352 -34 -846 -115 -1102 -181 -31 -8 -63 -14 -71 -14 -26 0 -105 381 -137 658 -20 174 -26 189 -83 218 -37 19 -67 17 -106 -6 -53 -32 -63 -70 -51 -186 20 -199 62 -439 117 -669 l19 -80 -186 -61 c-192 -63 -336 -119 -454 -174 -98 -47 -130 -95 -107 -164 16 -48 57 -76 112 -76 24 0 48 4 54 9 28 25 587 231 629 231 7 0 44 -99 88 -229 81 -246 208 -575 306 -791 34 -74 61 -139 61 -145 0 -6 -27 -70 -60 -142 -86 -192 -212 -510 -282 -715 l-61 -179 -31 7 c-57 12 -380 122 -481 165 -168 70 -170 70 -212 56 -42 -13 -83 -65 -83 -104 0 -52 29 -91 88 -119 101 -48 254 -106 452 -171 107 -35 195 -65 196 -66 1 -1 -18 -80 -42 -176 -24 -96 -44 -187 -44 -203 0 -72 61 -125 133 -115 70 9 82 32 135 242 36 140 52 190 63 189 7 -1 89 -18 180 -38 218 -47 474 -90 695 -116 99 -12 189 -23 201 -26 14 -2 53 -48 109 -127 213 -297 456 -599 651 -809 35 -37 63 -71 63 -75 0 -11 -158 -166 -274 -269 -50 -44 -95 -94 -103 -112 -38 -90 72 -187 160 -141 25 14 169 139 302 263 l90 84 95 -92 c109 -104 274 -248 373 -325 46 -36 79 -55 105 -58 94 -13 161 82 118 165 -8 15 -43 50 -78 77 -89 71 -258 218 -362 317 l-90 84 125 140 c214 240 420 497 594 744 49 69 89 126 90 128 1 1 78 11 171 22 278 33 625 92 847 145 53 12 99 20 101 16 9 -15 87 -346 106 -451 12 -63 26 -128 32 -143 36 -94 173 -89 213 8 12 27 10 49 -12 169 -14 76 -44 215 -68 309 -23 95 -42 172 -41 173 0 0 100 33 221 73 291 95 362 125 386 165 31 50 25 102 -15 142 -41 41 -88 45 -168 13 -107 -42 -276 -101 -384 -133 l-110 -33 -53 156 c-63 188 -217 577 -298 756 l-59 130 66 150 c109 245 217 525 303 781 l80 242 81 -25 c44 -13 133 -42 197 -64 146 -49 180 -50 225 -5 29 29 34 41 34 79 0 84 -37 106 -330 197 -74 23 -137 44 -139 46 -2 2 12 77 32 166 44 198 77 386 77 440 0 32 -7 47 -34 74 -29 29 -41 34 -81 34 -40 0 -52 -5 -79 -32 -30 -31 -34 -43 -54 -168 -22 -135 -87 -438 -96 -447 -3 -3 -62 9 -133 25 -284 67 -712 135 -1051 167 l-72 7 -63 87 c-142 197 -414 530 -570 698 l-71 77 95 90 c103 98 254 230 366 319 86 68 105 109 80 169 -29 69 -98 93 -164 56 -57 -31 -280 -218 -423 -355 l-115 -110 -75 69 c-217 201 -425 376 -534 449 -62 41 -102 49 -145 26z m880 -1025 c151 -171 434 -521 426 -527 -1 -2 -78 1 -172 6 -219 10 -534 10 -755 -1 -96 -4 -177 -7 -179 -5 -6 7 197 263 358 450 122 143 192 215 202 209 5 -3 59 -62 120 -132z m539 -770 l74 -7 79 -115 c229 -335 478 -758 675 -1146 l87 -173 -94 -188 c-165 -332 -352 -659 -546 -954 l-102 -156 -94 -6 c-431 -31 -1067 -33 -1434 -4 l-150 12 -93 140 c-109 165 -249 396 -355 585 -87 157 -287 553 -287 569 0 16 127 268 238 471 198 365 563 943 606 961 45 18 363 27 831 23 270 -3 524 -8 565 -12z m770 -88 c157 -24 487 -89 578 -113 23 -7 42 -15 42 -20 0 -14 -116 -360 -165 -491 -46 -124 -158 -398 -177 -433 -8 -16 -27 14 -112 175 -164 310 -279 506 -453 771 -57 87 -103 159 -103 161 0 5 216 -23 390 -50z m-2490 42 c0 -3 -37 -63 -83 -133 -182 -279 -366 -595 -495 -850 -37 -73 -69 -133 -72 -133 -3 0 -11 12 -17 28 -6 15 -50 124 -98 242 -76 188 -235 639 -235 667 0 22 460 115 805 163 134 18 195 23 195 16z m-621 -1733 c84 -177 290 -542 433 -771 50 -79 88 -145 86 -147 -2 -3 -81 6 -174 20 -337 49 -684 120 -684 141 0 48 291 804 309 804 4 0 17 -21 30 -47z m3450 -105 c99 -239 249 -654 239 -663 -21 -21 -809 -163 -852 -153 -10 2 10 43 71 138 107 168 272 454 383 667 47 90 88 163 91 163 3 0 34 -69 68 -152z m-2071 -1119 c286 -10 849 0 936 17 35 7 39 14 -78 -141 -156 -208 -325 -414 -494 -603 -63 -70 -66 -72 -85 -55 -90 80 -647 768 -647 799 0 3 15 4 33 0 17 -3 168 -10 335 -17z" fill="#ef5366"/>
    <path d="M3873 4340 c-164 -30 -329 -131 -429 -263 -99 -131 -147 -271 -147 -432 0 -309 193 -574 488 -672 71 -24 96 -27 215 -27 119 0 144 3 215 27 234 78 409 265 471 507 25 95 23 245 -5 343 -85 307 -339 511 -650 522 -58 2 -129 0 -158 -5z" fill="#ef5366"/>
    <path d="M1642 6804 c-100 -70 -40 -227 82 -211 78 11 120 94 84 172 -23 51 -118 73 -166 39z" fill="#ef5366"/>
    <path d="M6284 6686 c-94 -41 -99 -168 -8 -211 40 -19 67 -19 104 0 52 27 75 101 48 159 -22 50 -92 75 -144 52z" fill="#ef5366"/>
    <path d="M1552 6344 c-28 -19 -52 -65 -52 -99 0 -61 57 -115 122 -115 30 0 84 33 98 60 27 51 6 131 -41 155 -37 20 -99 19 -127 -1z" fill="#ef5366"/>
    <path d="M6318 6213 c-30 -19 -58 -68 -58 -103 0 -29 26 -76 52 -94 28 -20 90 -21 126 -2 68 35 75 135 14 190 -30 26 -100 31 -134 9z" fill="#ef5366"/>
    <path d="M7083 4715 c-67 -29 -84 -121 -32 -179 38 -44 83 -54 131 -32 89 42 90 169 2 211 -39 18 -59 18 -101 0z" fill="#ef5366"/>
    <path d="M553 4556 c-42 -19 -66 -58 -66 -106 0 -50 25 -88 70 -107 72 -30 150 16 159 93 11 89 -82 156 -163 120z" fill="#ef5366"/>
    <path d="M7484 4460 c-11 -4 -33 -22 -47 -40 -54 -64 -22 -156 62 -181 71 -21 141 34 141 111 0 81 -83 140 -156 110z" fill="#ef5366"/>
    <path d="M201 4226 c-33 -18 -50 -53 -51 -101 -1 -121 163 -158 215 -49 8 18 15 42 15 54 0 29 -26 76 -52 94 -27 19 -94 20 -127 2z" fill="#ef5366"/>
    <path d="M7783 4099 c-62 -18 -99 -99 -70 -155 27 -51 54 -69 109 -69 43 0 53 4 79 32 37 42 45 75 28 120 -23 60 -83 89 -146 72z" fill="#ef5366"/>
    <path d="M73 3796 c-129 -58 -59 -258 76 -218 46 14 70 40 80 85 22 94 -70 171 -156 133z" fill="#ef5366"/>
    <path d="M7805 3636 c-88 -39 -87 -169 1 -211 47 -22 101 -8 138 36 76 90 -31 224 -139 175z" fill="#ef5366"/>
    <path d="M238 3364 c-35 -18 -58 -62 -58 -110 0 -28 8 -44 34 -70 29 -29 41 -34 81 -34 40 0 52 5 81 34 26 26 34 42 34 70 0 97 -91 155 -172 110z" fill="#ef5366"/>
    <path d="M7538 3244 c-35 -18 -58 -62 -58 -110 0 -28 8 -44 34 -70 29 -29 41 -34 81 -34 40 0 52 5 81 34 26 26 34 42 34 70 0 97 -91 155 -172 110z" fill="#ef5366"/>
    <path d="M584 3051 c-82 -50 -63 -185 30 -210 73 -19 146 37 146 112 0 49 -19 81 -60 102 -39 20 -79 19 -116 -4z" fill="#ef5366"/>
    <path d="M7134 2946 c-26 -26 -34 -42 -34 -70 0 -49 23 -92 60 -111 82 -42 170 14 170 111 0 28 -8 44 -34 70 -29 29 -41 34 -81 34 -40 0 -52 -5 -81 -34z" fill="#ef5366"/>
    <path d="M1570 1633 c-55 -38 -72 -91 -46 -145 29 -61 103 -85 165 -53 28 14 61 68 61 100 0 32 -33 86 -61 100 -38 20 -89 19 -119 -2z" fill="#ef5366"/>
    <path d="M6323 1465 c-37 -16 -63 -60 -63 -105 0 -74 77 -132 146 -110 100 33 114 169 20 214 -41 19 -61 20 -103 1z" fill="#ef5366"/>
    <path d="M1534 1146 c-29 -29 -34 -41 -34 -81 0 -40 5 -52 34 -81 26 -26 42 -34 70 -34 96 0 153 88 111 170 -21 42 -53 60 -103 60 -37 0 -50 -6 -78 -34z" fill="#ef5366"/>
    <path d="M6302 990 c-66 -41 -75 -125 -21 -179 54 -54 138 -45 179 21 63 100 -58 221 -158 158z" fill="#ef5366"/>
    <path d="M1638 704 c-53 -28 -72 -98 -43 -154 21 -42 53 -60 103 -60 37 0 50 6 78 34 29 29 34 41 34 81 0 40 -5 52 -34 81 -27 27 -42 34 -72 34 -22 -1 -51 -7 -66 -16z" fill="#ef5366"/>
    <path d="M3212 590 c-62 -39 -75 -127 -26 -181 48 -53 145 -40 184 23 63 100 -58 221 -158 158z" fill="#ef5366"/>
    <path d="M6144 526 c-29 -29 -34 -41 -34 -81 0 -40 5 -52 34 -81 26 -26 42 -34 70 -34 49 0 92 23 111 60 42 82 -14 170 -111 170 -28 0 -44 -8 -70 -34z" fill="#ef5366"/>
    <path d="M4950 444 c-64 -22 -90 -57 -90 -122 0 -69 69 -123 139 -107 65 14 110 107 79 164 -24 44 -90 78 -128 65z" fill="#ef5366"/>
    <path d="M2784 336 c-29 -29 -34 -41 -34 -81 0 -40 5 -52 35 -82 33 -33 38 -35 87 -31 43 5 57 11 81 38 26 29 29 38 24 83 -6 69 -47 107 -113 107 -39 0 -51 -5 -80 -34z" fill="#ef5366"/>
    <path d="M1934 339 c-99 -28 -112 -169 -18 -214 40 -19 67 -19 103 -1 38 20 61 58 61 102 0 81 -69 135 -146 113z" fill="#ef5366"/>
    <path d="M5365 260 c-38 -15 -67 -57 -72 -103 -5 -38 -1 -48 26 -80 37 -41 77 -53 126 -37 68 22 98 115 58 177 -28 42 -92 62 -138 43z" fill="#ef5366"/>
    <path d="M5820 253 c-21 -11 -42 -33 -54 -57 -17 -36 -18 -43 -5 -80 16 -46 67 -86 108 -86 39 0 89 35 108 75 15 32 16 40 3 77 -26 72 -96 104 -160 71z" fill="#ef5366"/>
    <path d="M2353 221 c-40 -25 -53 -49 -53 -101 0 -34 6 -48 34 -76 29 -29 41 -34 81 -34 40 0 52 5 82 35 33 33 35 39 31 86 -7 66 -38 99 -99 106 -32 3 -52 -1 -76 -16z" fill="#ef5366"/>
  </g>
</svg>
